<svg xmlns="http://www.w3.org/2000/svg" viewBox="0 0 1095.89 79.62"><defs><style>.cls-1{fill:#f7e8cf;}</style></defs><title>Asset 3</title><g id="Layer_2" data-name="Layer 2"><g id="Layer_1-2" data-name="Layer 1"><path class="cls-1" d="M1095.89,30.62c-13.65,0-23-23-45-23-20.5,0-29.67,8.57-29.67,8.57s-25.79-12.54-42-10c-5.7.9-13.37,3.21-20.07,5.49a40,40,0,0,1-28.45-1C923,7.48,913.53,4.23,906.23,4.19c-15.39-.08-36.33,9.67-36.33,9.67s-24.27-6.69-41.6-8.42c-16.19-1.62-40,5.39-40,5.39s-7-7.64-24-7.64-26.81,9.18-26.81,9.18S721.89-1.81,693.23.19c11.33,10.67-14,17.41-24.73,13.38-7.07-2.65-15.37-5.68-22.83-7.75C608.89-4.38,582.9,29.62,547.95,30.62v49h547.95Z"/><path class="cls-1" d="M547.95,30.62c-13.65,0-23-23-45-23-20.5,0-29.67,8.57-29.67,8.57s-25.79-12.54-42-10c-5.7.9-13.37,3.21-20.07,5.49a40,40,0,0,1-28.45-1c-7.67-3.24-17.17-6.49-24.48-6.53-15.39-.08-36.33,9.67-36.33,9.67s-24.27-6.69-41.6-8.42c-16.19-1.62-40,5.39-40,5.39s-7-7.64-24-7.64-26.81,9.18-26.81,9.18S173.95-1.81,145.28.19c11.33,10.67-14,17.41-24.73,13.38-7.07-2.65-15.37-5.68-22.83-7.75C60.95-4.38,35,29.62,0,30.62v49H547.95Z"/></g></g></svg>