<svg xmlns="http://www.w3.org/2000/svg" viewBox="0 0 558.05 221.23"><defs><style>.cls-1{fill:#daac69;}.cls-2{fill:#21366c;}.cls-3{fill:#eed443;}.cls-4{font-size:24.14px;font-family:DINCond-Black, DINCond-Black;letter-spacing:0.14em;}.cls-4,.cls-5{fill:#ed1c24;}.cls-6{fill:#001c3f;}.cls-7{fill:#facb87;}</style></defs><title>Asset 2</title><g id="Layer_2" data-name="Layer 2"><g id="Layer_1-2" data-name="Layer 1"><polygon class="cls-1" points="315.28 131.08 315.28 111.59 323.07 110.61 322.59 95.51 311.38 95.51 308.45 70.66 312.84 70.17 309.43 46.29 297.74 46.29 292.86 31.67 266.55 32.16 264.6 47.27 255.34 46.78 251.93 18.03 259.24 17.54 258.26 10.23 249.98 10.23 248.03 0 242.79 0.12 240.95 10.31 231.74 10.31 230.92 17.44 238 17.67 234.87 46.78 222.69 46.78 220.26 75.53 226.59 75.53 221.23 86.25 201.25 87.22 206.12 101.36 212.46 101.84 212.95 113.54 222.69 113.05 222.69 131.08 315.28 131.08"/><path class="cls-1" d="M0,106.23s76,34.11,103.31,115h406.4l37-78-418.1-1Z"/><path class="cls-2" d="M216.36,153S51.65,156.91,0,106.23H0a9.27,9.27,0,0,1,13.67-8.15c26.16,14,90.79,40.12,201.71,33.49Z"/><polygon class="cls-3" points="215.38 131.57 215.38 143.26 546.74 143.26 546.74 129.62 215.38 131.57"/><text class="cls-4" transform="translate(115.54 186.33)">001A</text><polygon class="cls-5" points="215.38 143.26 215.38 162.75 397.63 159.83 412.25 143.26 215.38 143.26"/><polygon class="cls-6" points="397.63 159.83 397.63 170.55 477.83 170.55 483.39 158.21 543.82 157.56 546.74 143.26 412.25 143.26 397.63 159.83"/><polygon class="cls-6" points="216.36 153.01 191.72 152.83 205.83 197.35 281.98 197.84 324.86 177.7 322.21 161.05 216.36 153.01"/><polygon class="cls-2" points="324.86 177.7 389.33 177.3 397.63 170.55 397.63 159.83 322.21 161.05 324.86 177.7"/><polygon class="cls-2" points="263.28 64.4 262.65 68.71 269.12 68.49 269.42 63.67 263.28 64.4"/><polygon class="cls-2" points="271.47 64.18 271.47 68.56 277.01 68.34 276.86 63.82 271.47 64.18"/><polygon class="cls-2" points="279.93 63.82 279.63 68.78 284.74 68.49 284.6 63.97 279.93 63.82"/><polygon class="cls-2" points="262.99 86.59 262.65 111.59 267.23 111.12 267.52 86.89 262.99 86.59"/><polygon class="cls-2" points="271.61 87.62 271.61 110.68 275.99 110.1 276.42 87.62 271.61 87.62"/><polygon class="cls-2" points="279.49 87.76 280.07 109.95 284.89 110.25 284.45 87.03 279.49 87.76"/><polygon class="cls-2" points="212.46 101.84 238.28 101.84 239.26 112.56 212.95 113.54 212.46 101.84"/><polygon class="cls-2" points="239.26 112.56 323.07 110.61 323.07 116.46 238.28 117.44 239.26 112.56"/><polygon class="cls-6" points="311.41 58.42 298.18 58.61 297.74 46.29 309.43 46.29 311.41 58.42"/><polygon class="cls-6" points="264.6 47.27 259.73 76.99 254.85 76.99 255.34 46.78 264.6 47.27"/><polygon class="cls-6" points="233.46 49.59 228.18 71.32 222.78 71.2 223.76 49.71 233.46 49.59"/><polygon class="cls-3" points="201.25 87.22 229.66 85.77 238.28 101.84 206 101.83 201.25 87.22"/><polygon class="cls-3" points="259.24 17.54 251.93 18.03 230.92 17.44 231.74 10.31 249.98 10.23 258.26 10.23 259.24 17.54"/><polygon class="cls-3" points="333.47 124.75 336.25 126.53 353.03 127.64 377.37 126.98 382.04 121.31 380.59 120.31 375.37 122.98 350.7 122.64 346.69 120.98 342.36 121.64 339.03 123.64 333.47 124.75"/><circle class="cls-3" cx="344.81" cy="128.98" r="1.78"/><circle class="cls-3" cx="361.7" cy="128.98" r="1.78"/><polygon class="cls-5" points="354.92 125.42 368.25 128.76 373.59 128.87 368.37 125.42 354.92 125.42"/><polygon class="cls-5" points="348.94 122.73 346.69 120.98 342.36 121.64 343.28 123.31 348.94 122.73"/><polygon class="cls-7" points="343.28 123.31 339.03 123.64 342.36 121.64 343.28 123.31"/><polygon class="cls-3" points="395.39 124.75 398.17 126.53 414.95 127.64 439.29 126.98 443.96 121.31 442.51 120.31 437.29 122.98 412.62 122.64 408.62 120.98 404.28 121.64 400.95 123.64 395.39 124.75"/><circle class="cls-3" cx="406.73" cy="128.98" r="1.78"/><circle class="cls-3" cx="423.62" cy="128.98" r="1.78"/><polygon class="cls-5" points="416.84 125.42 430.18 128.76 435.51 128.87 430.29 125.42 416.84 125.42"/><polygon class="cls-5" points="410.87 122.73 408.62 120.98 404.28 121.64 405.2 123.31 410.87 122.73"/><polygon class="cls-7" points="405.2 123.31 400.95 123.64 404.28 121.64 405.2 123.31"/><polygon class="cls-3" points="457.31 124.75 460.09 126.53 476.87 127.64 501.21 126.98 505.88 121.31 504.43 120.31 499.21 122.98 474.54 122.64 470.54 120.98 466.2 121.64 462.87 123.64 457.31 124.75"/><circle class="cls-3" cx="468.65" cy="128.98" r="1.78"/><circle class="cls-3" cx="485.54" cy="128.98" r="1.78"/><polygon class="cls-5" points="478.76 125.42 492.1 128.76 497.43 128.87 492.21 125.42 478.76 125.42"/><polygon class="cls-5" points="472.79 122.73 470.54 120.98 466.2 121.64 467.12 123.31 472.79 122.73"/><polygon class="cls-7" points="467.12 123.31 462.87 123.64 466.2 121.64 467.12 123.31"/><polygon class="cls-3" points="509.48 124.75 512.26 126.53 529.04 127.64 553.38 126.98 558.05 121.31 556.61 120.31 551.38 122.98 526.71 122.64 522.71 120.98 518.37 121.64 515.04 123.64 509.48 124.75"/><circle class="cls-3" cx="520.82" cy="128.98" r="1.78"/><circle class="cls-3" cx="537.71" cy="128.98" r="1.78"/><polygon class="cls-5" points="530.93 125.42 544.27 128.76 549.6 128.87 544.38 125.42 530.93 125.42"/><polygon class="cls-5" points="524.96 122.73 522.71 120.98 518.37 121.64 519.29 123.31 524.96 122.73"/><polygon class="cls-7" points="519.29 123.31 515.04 123.64 518.37 121.64 519.29 123.31"/></g></g></svg>