<svg xmlns="http://www.w3.org/2000/svg" viewBox="0 0 62.82 36.64"><defs><style>.cls-1{fill:#21366c;}</style></defs><title>Asset 14</title><g id="Layer_2" data-name="Layer 2"><g id="Layer_1-2" data-name="Layer 1"><path class="cls-1" d="M.81,20.09C-1.8,26.21,2.22,31.45,8.48,33.67a28.34,28.34,0,0,0,9,1.59l15.23,1.38V30s-12.33.07-17.33-1.77a29.32,29.32,0,0,1-9-4.89c-.82-.72,1-9.44,19.7-12.77l-1.33-4C7,9.92.81,20.09.81,20.09Z"/><path class="cls-1" d="M49.14,3.09s6.83-.17,8.17,2-1.5,4.17-5.67,5.5c-8.83,2.17-21.17,1.93-29.33.33l.33,4s26.41,4.17,35.51-1.26a15.37,15.37,0,0,0,4.32-5c1.5-3-2.33-6-2.33-6S56.31-.58,45.81.09Z"/></g></g></svg>