<svg xmlns="http://www.w3.org/2000/svg" viewBox="0 0 159.76 174.14"><defs><style>.cls-1{fill:#21366c;}.cls-2{fill:#facb87;}.cls-3{fill:#fff;}.cls-4{fill:#ed1c24;}.cls-5{fill:#f3c086;}.cls-6{fill:#f4c63d;}</style></defs><title>Asset 8</title><g id="Layer_2" data-name="Layer 2"><g id="Layer_1-2" data-name="Layer 1"><polygon class="cls-1" points="136.89 111.4 26.48 101.33 22.75 121.75 135.63 132.28 136.89 111.4"/><path class="cls-2" d="M134.26,128.42s-30.52,3.16-43.6,1.83c-24.84-2.53-49.64-5.73-74.38-9.13l-7,5.35-1,10.78,5.82,4.33h0a23.3,23.3,0,0,0,5.73,17.59l4.95,5.6,6-2.16,11.54,1.47,7.38,8.48,17,1.59L82.36,169l2.45.94a47.16,47.16,0,0,0,28,1.78l3.08-.75,2.16-6.42,6.19-3.7,13.16.84h0a32.32,32.32,0,0,0,3.17-31.39l-.28-.65Z"/><path class="cls-3" d="M28.81,118.52c-.28,7,.11,26.65,12.94,33.29,0,0,36.36,26.9,80.09,1.28,0,0,4.16-13.29,7.41-25.27Z"/><path class="cls-4" d="M34.89,121.59c-.25,6.13.1,23.4,11.36,29.22,0,0,31.92,23.62,70.32,1.13,0,0,7.81-11.68,9.19-21.85Z"/><path class="cls-1" d="M72.93,122.6H84.12a0,0,0,0,1,0,0v15.66a5.6,5.6,0,0,1-5.6,5.6h0a5.6,5.6,0,0,1-5.6-5.6V122.6a0,0,0,0,1,0,0Z" transform="translate(12.75 -6.73) rotate(5.34)"/><polygon class="cls-5" points="40.41 126.91 41.56 134.8 50.41 134.07 50.39 127.84 40.41 126.91"/><polygon class="cls-5" points="51.14 137.51 42.97 139.4 48.19 147.23 53.65 141.57 51.14 137.51"/><polygon class="cls-5" points="57.06 143.91 52.79 150.78 59.89 153.91 64.05 146.9 57.06 143.91"/><polygon class="cls-5" points="68.64 149.14 66.26 155.15 73.96 156.52 74.53 150.41 68.64 149.14"/><polygon class="cls-5" points="79.61 150.17 79.84 157.07 88.32 156.56 84.47 149.46 79.61 150.17"/><polygon class="cls-5" points="90.09 148.03 92.9 154.85 100.93 152.16 96.43 145.3 90.09 148.03"/><polygon class="cls-5" points="101.64 144.57 106.68 149.85 111.7 144.6 105.06 141.39 101.64 144.57"/><polygon class="cls-5" points="107.74 133.2 106.53 138.15 113.97 140.41 116.64 134.04 107.74 133.2"/><path class="cls-2" d="M151.08,124.83l-3.87-20.64L152.09,98l1-10.81-8.69-11.39,11.22-7.16,4.13-14.28-6.69-18.57-.16-6.63-9-10.37L138.25,8,112.11,0,87.29,7.81,75.67.55,52.11,1.86,45,13.06,33.48,14l-3.1,19.74-4.81,5.54-10,2.38L11.31,54.49l6.26,8-12,10.17L0,98.6l14.11,25.85,14.61-.52h0a7.55,7.55,0,0,1,8.14-7.11l16,1.28A42,42,0,0,0,74.6,114l1.63-.8a8.61,8.61,0,0,1,9,.89h0a42,42,0,0,0,22,8.45l14.38,1.85a7.55,7.55,0,0,1,6.55,8.19v.13l12.61-.45Z"/><path class="cls-4" d="M73.68,21.78l-10.56-1L41.21,35.86,23.58,80.31l13.88,28.31,37.8-8.34s5.15,3.88,13.2,1.54l32.37,14.08,20-27.4s-5.51-34.61-8.5-44.33C131.62,41.75,108.45,25,108.45,25Z"/><circle class="cls-3" cx="115.13" cy="59.53" r="16.68" transform="translate(45.14 168.62) rotate(-84.66)"/><path class="cls-6" d="M114,72A12.57,12.57,0,1,1,127.64,60.7,12.58,12.58,0,0,1,114,72Zm2-21.16a8.69,8.69,0,1,0,7.84,9.46A8.7,8.7,0,0,0,115.94,50.88Z"/><circle class="cls-1" cx="114.36" cy="59.46" r="4.78" transform="translate(44.51 167.78) rotate(-84.66)"/><circle class="cls-3" cx="57.89" cy="54.18" r="16.68" transform="translate(-1.45 106.77) rotate(-84.66)"/><path class="cls-6" d="M56.72,66.69A12.57,12.57,0,1,1,70.4,55.35,12.58,12.58,0,0,1,56.72,66.69Zm2-21.16A8.69,8.69,0,1,0,66.54,55,8.7,8.7,0,0,0,58.7,45.53Z"/><circle class="cls-1" cx="58.66" cy="54.25" r="4.78" transform="translate(-0.82 107.6) rotate(-84.66)"/><rect class="cls-4" x="37.39" y="64.44" width="36.57" height="15.11" transform="translate(6.95 -4.87) rotate(5.34)"/><rect class="cls-4" x="94.77" y="69.8" width="36.57" height="15.11" transform="translate(7.69 -10.19) rotate(5.34)"/><path class="cls-4" d="M149.06,15.68l-12.38-4s-26.72,1.87-35,12.67l6.8.64L132,44.35l2.84,10.39,2.1-1.29C147.81,46.84,152.5,27.9,149.06,15.68Z"/><path class="cls-5" d="M79.74,94.77l3.13-14.5,1.29.12.59,14.85-.33.12a5.22,5.22,0,0,1-4.67-.59Z"/><path class="cls-4" d="M32.62,2.34,23.08,8.1l-.86,9.15a29.72,29.72,0,0,0,8,23.15L39,46.59,44.64,33.5,63.12,20.8l10.56,1C66.59,8.84,32.62,2.34,32.62,2.34Z"/><path class="cls-1" d="M76.07,86.73l-16.45,3-4.9-20.51L73.17,70.6l-1.75,4.63a5.35,5.35,0,0,1-7.1,3h0L66.39,75l1.21.76L68.11,74l-4.4-.41-.58,6.17L70.22,82l4.39-12.58L73.67,46.1,59,34l.37-2.06,21.7,10.76Z"/><path class="cls-1" d="M90.06,88l15.6,6,8.61-19.25L95.9,72.72l.87,4.87a5.35,5.35,0,0,0,6.42,4.29h0l-1.43-3.6-1.33.53L100.24,77l4.4.41-.58,6.17-7.39.91-2-13.17,5.25-22.78,16.67-9.2,0-2.09L93.32,43.82Z"/></g></g></svg>