<svg xmlns="http://www.w3.org/2000/svg" viewBox="0 0 170.96 188.58"><defs><style>.cls-1{fill:#21366c;}.cls-2{fill:#facb87;}.cls-3{fill:#fff;}.cls-4{fill:#ed1c24;}.cls-5{fill:#f3c086;}.cls-6{fill:#f4c63d;}</style></defs><title>Asset 7</title><g id="Layer_2" data-name="Layer 2"><g id="Layer_1-2" data-name="Layer 1"><polygon class="cls-1" points="23.26 119.35 142.38 111.16 145.91 133.23 24.12 141.86 23.26 119.35"/><path class="cls-2" d="M25.69,137.74s32.78,4.13,46.9,3c26.81-2.12,53.58-5,80.3-8l7.43,5.93.83,11.63-6.37,4.53h0a25.09,25.09,0,0,1-6.59,18.8l-5.46,5.91L136.28,177l-12.46,1.3-8.15,9-18.32,1.3-16.74-5.92-2.66.95a50.79,50.79,0,0,1-30.18,1.25l-3.3-.88-2.17-7-6.57-4.14-14.19.59h0a34.81,34.81,0,0,1-2.66-33.87l.32-.69Z"/><path class="cls-3" d="M139.47,129.61c.14,7.52-.76,28.69-14.73,35.53,0,0-39.79,28.1-86.27-.54,0,0-4.16-14.41-7.38-27.39Z"/><path class="cls-4" d="M132.84,132.76c.12,6.61-.67,25.19-12.93,31.19,0,0-34.93,24.67-75.74-.47,0,0-8.13-12.76-9.38-23.75Z"/><path class="cls-1" d="M85.58,132.81h0a6,6,0,0,1,6,6v16.86a0,0,0,0,1,0,0H79.55a0,0,0,0,1,0,0V138.83A6,6,0,0,1,85.58,132.81Z" transform="translate(181.18 282.07) rotate(175.93)"/><polygon class="cls-5" points="126.77 138.36 125.34 146.83 115.83 145.83 116 139.12 126.77 138.36"/><polygon class="cls-5" points="114.96 149.52 123.72 151.75 117.91 160.06 112.17 153.83 114.96 149.52"/><polygon class="cls-5" points="108.43 156.26 112.87 163.76 105.15 166.96 100.84 159.32 108.43 156.26"/><polygon class="cls-5" points="95.84 161.63 98.26 168.15 89.93 169.44 89.46 162.85 95.84 161.63"/><polygon class="cls-5" points="84.01 162.47 83.59 169.89 74.47 169.14 78.79 161.58 84.01 162.47"/><polygon class="cls-5" points="72.77 159.92 69.59 167.19 61 164.1 66.01 156.82 72.77 159.92"/><polygon class="cls-5" points="60.42 155.91 54.87 161.47 49.59 155.71 56.82 152.4 60.42 155.91"/><polygon class="cls-5" points="54.13 143.53 55.31 148.88 47.24 151.13 44.52 144.21 54.13 143.53"/><path class="cls-2" d="M7.66,133.47l4.66-22.13-5.11-6.75L6.38,92.93,16,80.88,4.1,72.9,0,57.43,7.65,37.59,8,30.45l10-10.95L24.27,8,52.6,0,79.15,9,91.83,1.47l25.34,2,7.41,12.24L136.94,17l2.86,21.33,5,6.08,10.66,2.8,4.34,13.92-6.93,8.45,12.7,11.23L171,108.85l-15.81,27.49-15.71-.91h0a8.13,8.13,0,0,0-8.59-7.85l-17.23,1a45.23,45.23,0,0,1-23.35-5l-1.74-.9a9.27,9.27,0,0,0-9.71.74h0A45.23,45.23,0,0,1,55,132l-15.53,1.65a8.13,8.13,0,0,0-7.25,8.66v.14l-13.57-.79Z"/><path class="cls-4" d="M93.46,24.37l11.39-.81,23.23,16.75L146,88.59l-15.63,30.14-40.5-9.88s-5.63,4.05-14.25,1.34L40.44,124.57l-20.9-30s6.76-37.14,10.21-47.52c.85-2.57,26.2-20,26.2-20Z"/><circle class="cls-3" cx="47.93" cy="64.02" r="17.97" transform="translate(-4.42 3.56) rotate(-4.07)"/><path class="cls-6" d="M34.44,65A13.53,13.53,0,1,1,48.89,77.52,13.55,13.55,0,0,1,34.44,65Zm4.16-.3a9.36,9.36,0,1,0,8.67-10A9.37,9.37,0,0,0,38.6,64.69Z"/><circle class="cls-1" cx="48.77" cy="63.97" r="5.15" transform="matrix(1, -0.07, 0.07, 1, -4.42, 3.62)"/><circle class="cls-3" cx="109.69" cy="59.63" r="17.97" transform="translate(-3.95 7.93) rotate(-4.07)"/><path class="cls-6" d="M96.2,60.59a13.53,13.53,0,1,1,14.46,12.54A13.55,13.55,0,0,1,96.2,60.59Zm4.16-.3a9.36,9.36,0,1,0,8.67-10A9.37,9.37,0,0,0,100.36,60.3Z"/><circle class="cls-1" cx="108.86" cy="59.69" r="5.15" transform="matrix(1, -0.07, 0.07, 1, -3.96, 7.87)"/><rect class="cls-4" x="91.96" y="70.73" width="39.38" height="16.27" transform="translate(228.61 149.61) rotate(175.93)"/><rect class="cls-4" x="30.05" y="75.13" width="39.38" height="16.27" transform="translate(105.26 162.8) rotate(175.93)"/><path class="cls-4" d="M12.45,16l13.42-4s28.72,2.65,37.41,14.48L55.95,27,30.09,47.28,26.78,58.4,24.54,57C13,49.58,8.45,29.07,12.45,16Z"/><path class="cls-5" d="M85.19,102.81l-3-15.69-1.39.1-1,16,.35.14a5.62,5.62,0,0,0,5-.52Z"/><path class="cls-4" d="M138.14,4.43l10.13,6.43.7,9.87a32,32,0,0,1-9.12,24.73l-9.59,6.46-5.8-14.23-19.6-14.12-11.39.81C101.41,10.61,138.14,4.43,138.14,4.43Z"/><path class="cls-1" d="M89.34,94.25,107,97.91l5.76-22-19.9,1,1.78,5a5.76,5.76,0,0,0,7.57,3.43h0L100,81.82l-1.32.79-.51-1.87,4.75-.34.47,6.65-7.69,2.26L91.33,75.68l1.56-25.12L109,37.85l-.35-2.23L85,46.69Z"/><path class="cls-1" d="M74.24,95.32,57.3,101.45,48.48,80.52l19.84-1.83-1,5.23a5.76,5.76,0,0,1-7,4.47h0l1.62-3.85,1.42.6.24-1.92-4.75.34.47,6.65,7.93,1.15,2.44-14.13-5.1-24.65L46.81,42.27l0-2.25,25,7.61Z"/></g></g></svg>