<svg xmlns="http://www.w3.org/2000/svg" viewBox="0 0 371.85 317.14"><defs><style>.cls-1{fill:#001c3f;}.cls-2{fill:#f3c086;}.cls-3{fill:#f4c63d;}.cls-4{fill:#ed1c24;}.cls-5{fill:#daac69;}.cls-6{fill:#facb87;}.cls-7{fill:#fff;}</style></defs><title>Asset 2</title><g id="Layer_2" data-name="Layer 2"><g id="Layer_1-2" data-name="Layer 1"><polygon class="cls-1" points="317.54 216.09 313.14 213.14 334.08 181.51 337.72 185.98 317.54 216.09"/><polygon class="cls-2" points="287.48 211.48 288.45 215.14 293.75 216.47 295.38 213.26 298.49 207.12 290.44 204.55 287.48 211.48"/><path class="cls-3" d="M274.27,243.06l11.36-24.74L295.1,215l18-1.81.91,9.42-11-1c-12.82,5-13.92,21.51-13.92,21.51l-12.1-6"/><polygon class="cls-1" points="298.49 207.12 299.65 203.46 289.1 200 285.13 210.39 287.48 211.48 290.44 204.55 298.49 207.12"/><circle class="cls-1" cx="289.1" cy="199.99" r="2.69"/><polygon class="cls-2" points="313.14 213.14 320.93 211.26 319.52 214.97 313.61 217.79 313.14 213.14"/><path class="cls-4" d="M146.64,84.36l24.55,11.06,34-7.77s-10,27.88,31.49,10.4c0,0,1.2,20.23,27.7,10.54,0,0,5.87,18.25,34.12,11.46,0,0,11.86,16.32,34.8,12.34,0,0,7.7,13.15,23.3,13.75,0,0,6.83,13.31,15.2,14.53,0,0-8.37,17.56,0,20.55,0,0-10.86,5.38-15.2,15.74,0,0-14.7-1.59-19.88,7.17V197s20.88-.73,20.6-17.5-38.91-46.27-210.13-68.19Z"/><path class="cls-5" d="M173.54,162.08S353.91,157.9,336.77,197c0,0,19.3.7,21.76-16.94,3.09-22.22-72.78-58.79-211.29-68.76l11.36,24.81Z"/><path class="cls-6" d="M84.45,151.62,75.69,142s-10.12-10.37-17.24-8.89l-8.27,1.71s-10.5-14.57-7.25-25c0,0,5.42,2.17,8.48-2.89l.19-5.45,9.18-10.85a21.59,21.59,0,0,0,5.07-15.29h0l9,6.68-.72-15.16,4.42-1.84a58.73,58.73,0,0,1,25-4.49h0l1.26-13.53L121.46,48s-.49,5.86,7.25,8.26l1.6-4.65s7.2,4.28,8.56,10.63.41,17.24,7.63,22l.14.09,5,20.33-1.24,1.87a9.93,9.93,0,0,0-.67,9.81l19.6,30.75,14.08,7.58s.34,19.7,22.3,17.22l-1.7,5.86c-11.67,5.33-30.4-.43-30.4-.43l-.32,0c-2.39.18,4,14.74,17.71,13.74l-2.33,7s-30.27-11.4-31.26-8.57h0s16.59,10.57,16.26,19.9l-8.33,5.33c-3.75-11.44-12.31-15.66-18-13s1.67,15,1.67,15l-6.33,3.67-8-12.67h0a5.53,5.53,0,0,0-2.76,7.73l4.09,7.6-10.79,3.33-7.54-21-8.33-8.67L94.16,158.05a9.93,9.93,0,0,0-9.71-6.43Z"/><polygon class="cls-4" points="97.01 145.94 112.86 181.21 158.6 150.72 140.06 114.85 97.01 145.94"/><path class="cls-7" d="M140.06,114.85A93,93,0,0,0,117.94,125C106.58,132.19,97,145.94,97,145.94l5.13,11.1s3.88-9.6,18.22-20.06,28.1-6,28.1-6Z"/><path class="cls-7" d="M153,139.66l-7.51,4.48s0,14.35-11.36,20.93a20.83,20.83,0,0,1-21.23,0L106.58,168l6.28,13.22s10.46,1.2,16.44-3,26.31-17.56,26.31-17.56l3-9.94Z"/><circle class="cls-7" cx="83.26" cy="114.85" r="9.37"/><path class="cls-6" d="M107.79,58.25c.28-1.22-7.69-21.59-7.69-21.59L101,27.8l-6.72-5,.82-4.76,6.61,3.8,1.3-.41L107.62.53,113.11,0V7.39l10-1.23.6,4.31-12.4,1.65-1.18,8,8.51-.58.28,6.75-9.09,1.08-1.18,7.84,8.87,16.26Z"/><path class="cls-6" d="M65.89,88.68c-1.4.14-23-11.73-23-11.73l-10-.3-4.57-8.23-5.44.22,3.28,7.94L25.46,78,1.39,80.12,0,86.17l8.26,1.07-2.83,11,4.73,1.29,3.64-13.62,9.1-.16L21,95.22l7.5,1.29,3.18-8.57L40,86.33,56.87,98.6Z"/><circle class="cls-7" cx="116.74" cy="92.94" r="9.37"/><circle class="cls-1" cx="83.26" cy="114.85" r="5.2"/><circle class="cls-1" cx="116.74" cy="92.85" r="5.2"/><path class="cls-1" d="M117.48,119.67l-1.14-2.73a9.29,9.29,0,0,1,4.13-11.69l2.52-1.38,1.33,1.83a3,3,0,0,1-.74,4.25h0l-.92-1.14h0a2.6,2.6,0,0,0-1.56,4.08l.08.1,8.94-3.43,1.17-17.88a30.68,30.68,0,0,1,17.77-28.11c5.4-2.42,11.47-3.16,17.34.32,11.62,6.87.89,18.28.89,18.28l-1.62-1.31s8.12-7.58-2-13.72c-5.75-3.49-12-.54-16.94,3.53A30.6,30.6,0,0,0,136,90.16l-3.2,23.1Z"/><path class="cls-1" d="M108.89,124l-2.2-2a9.29,9.29,0,0,0-12.4.08l-2.12,1.93,1.29,1.85a3,3,0,0,0,4.26.69h0l-.78-1.25h0a2.6,2.6,0,0,1,4.36-.14l.07.11-6.17,7.33-17.28-4.74a30.68,30.68,0,0,0-32.38,7.61c-4.06,4.31-6.73,9.8-5.37,16.49,2.7,13.23,17,6.82,17,6.82l-.71-2s-9.82,5.2-12.32-6.36C42.71,144,47.54,139,53,135.68a30.6,30.6,0,0,1,21.93-3.77l22.87,4.53Z"/><path class="cls-1" d="M89.46,102.09C89,96.21,85,95.25,82.19,96.81s-1.87,6.23-5.55,6.52a6.7,6.7,0,0,1-.92,0A7.27,7.27,0,0,0,68,109.11h0c-1.48,2.67-5.25.36-7,1.71-2.47,1.89-2.25,5.8-2.25,5.8s1.11,4.5,4.56,3.86S89.75,105.71,89.46,102.09Z"/><path class="cls-1" d="M128.12,75c-.77-5.85-4.81-6.61-7.52-4.92s-1.56,6.32-5.22,6.79a6.7,6.7,0,0,1-.92,0A7.27,7.27,0,0,0,107,83.06h0c-1.35,2.74-5.22.62-6.91,2.05-2.37,2-2,5.9-2,5.9s1.34,4.44,4.75,3.63S128.59,78.58,128.12,75Z"/><path class="cls-4" d="M142.05,317.14s-8-62.38,34.05-89.88l4.81,4s-14.73,15.15-17.33,31.89l4,1.2s9-21.53,18.88-29.3l4.19,1.79s-4.63,41.11-23.25,80.32Z"/><polygon class="cls-2" points="159 263.13 159 271.1 168.56 273.49 174.14 266.31 176.11 256.35 163.59 252.36 159 263.13"/><polygon class="cls-1" points="163.59 252.36 163.59 246.78 179.72 252.36 174.14 266.31 176.11 256.35 163.59 252.36"/><polygon class="cls-2" points="186.43 235.03 184.64 226.65 191.37 226.65 190.62 236.82 186.43 235.03"/><polygon class="cls-1" points="186.88 232.95 181.73 229.92 222.9 162.68 231.87 162.68 186.88 232.95"/><polygon class="cls-2" points="177.46 228.3 188.38 222.92 192.81 225.26 189.72 228.75 180.92 231.24 177.46 228.3"/></g></g></svg>