<svg xmlns="http://www.w3.org/2000/svg" viewBox="0 0 53.54 68.9"><defs><style>.cls-1{fill:#f4c63d;}.cls-2{fill:#f3c086;}.cls-3{fill:none;stroke:#e69e3e;stroke-miterlimit:10;}</style></defs><title>5</title><g id="Layer_2" data-name="Layer 2"><g id="Layer_1-2" data-name="Layer 1"><polygon class="cls-1" points="43.54 68.9 11.3 41.48 19.12 29.34 53.54 59.9 43.54 68.9"/><polygon class="cls-2" points="15.38 35.04 7.64 23.08 11.3 13.52 19.12 29.34 15.38 35.04"/><circle class="cls-1" cx="13.52" cy="13.52" r="13.52"/><path class="cls-3" d="M24,13.52a3.48,3.48,0,0,0-1.73-3,3.52,3.52,0,0,0,0-.49,3.5,3.5,0,0,0-3.5-3.5,3.48,3.48,0,0,0-5.33-3,3.48,3.48,0,0,0-5.33,3A3.5,3.5,0,0,0,4.69,10a3.52,3.52,0,0,0,0,.49,3.47,3.47,0,0,0,0,6,3.41,3.41,0,0,0,3.45,4,3.48,3.48,0,0,0,5.33,3,3.48,3.48,0,0,0,5.33-3,3.41,3.41,0,0,0,3.45-4A3.48,3.48,0,0,0,24,13.52Z"/><line class="cls-3" x1="9.78" y1="9.01" x2="17.37" y2="9.01"/><line class="cls-3" x1="11.85" y1="7.08" x2="11.85" y2="10.66"/><line class="cls-3" x1="15.44" y1="7.08" x2="15.44" y2="10.66"/><polyline class="cls-3" points="8.26 13.52 8.26 11.49 19.12 11.49 19.12 13.52"/><line class="cls-3" x1="11.3" y1="13.52" x2="10.06" y2="16.05"/><line class="cls-3" x1="15.99" y1="13.52" x2="17.37" y2="16.05"/><line class="cls-3" x1="13.52" y1="14.78" x2="11.85" y2="17.98"/><line class="cls-3" x1="14.89" y1="16.38" x2="15.99" y2="17.98"/><polyline class="cls-3" points="11.85 21.57 11.85 19.5 15.44 19.5 15.44 21.57"/></g></g></svg>