<svg xmlns="http://www.w3.org/2000/svg" viewBox="0 0 297.01 279.44"><defs><style>.cls-1{fill:#ecda7e;}.cls-2{fill:#ed1c24;}.cls-3,.cls-4{fill:#21366c;}.cls-4{font-size:15.99px;font-family:DIN-Black, DIN Black;}</style></defs><title>Asset 4</title><g id="Layer_2" data-name="Layer 2"><g id="Layer_1-2" data-name="Layer 1"><polygon class="cls-1" points="154.64 112.77 93.99 130.13 79.51 145.74 118.64 157.3 154.64 112.77"/><path class="cls-2" d="M292.66,26.05S304.12,7.87,289.81,0L275.44,2.88s-14.58-2.72-22.66,6S62.34,210.38,62.34,210.38L2.27,215.45,0,229.55l37.07,16.82L22.16,272.15l4.95,7.29,21.38-15.29,29.09-9,36.84-38.76Z"/><polygon class="cls-1" points="1.02 222.44 48.96 233.54 62.34 210.38 4.09 207.53 1.02 222.44"/><polygon class="cls-1" points="0.76 224.85 45.46 239.74 40.15 248.18 0 229.55 0.76 224.85"/><path class="cls-1" d="M131.67,136.9s-22.43,44.73-17.26,79.45L77.57,255.11s-14.58-27.48-7.84-53Z"/><polygon class="cls-3" points="259.88 14.56 267.68 17.07 275.44 2.88 264.46 5.98 259.88 14.56"/><polygon class="cls-3" points="255.48 18.58 261.96 23.24 253.88 31.95 247.4 27.29 255.48 18.58"/><polygon class="cls-3" points="229.22 46.9 244.58 63.83 234.76 72.96 218.74 56.75 229.22 46.9"/><circle class="cls-3" cx="210.12" cy="79.15" r="3.96" transform="translate(9.22 179.41) rotate(-47.16)"/><circle class="cls-3" cx="200.7" cy="89.31" r="3.96" transform="translate(-1.25 175.75) rotate(-47.16)"/><circle class="cls-3" cx="191.27" cy="99.48" r="3.96" transform="translate(-11.72 172.1) rotate(-47.16)"/><circle class="cls-3" cx="181.85" cy="109.64" r="3.96" transform="translate(-22.19 168.44) rotate(-47.16)"/><circle class="cls-3" cx="134.72" cy="160.47" r="3.96" transform="translate(-74.55 150.15) rotate(-47.16)"/><circle class="cls-3" cx="125.29" cy="170.63" r="3.96" transform="translate(-85.02 146.49) rotate(-47.16)"/><circle class="cls-3" cx="115.87" cy="180.8" r="3.96" transform="translate(-95.49 142.83) rotate(-47.16)"/><circle class="cls-3" cx="106.44" cy="190.96" r="3.96" transform="translate(-105.96 139.18) rotate(-47.16)"/><circle class="cls-3" cx="96.35" cy="201.85" r="3.96" transform="translate(-117.18 135.26) rotate(-47.16)"/><polygon class="cls-3" points="162.24 119.14 176.78 133.31 168.71 142.02 154.24 129.95 162.24 119.14"/><polygon class="cls-3" points="146.86 138.64 159.87 149.36 151.1 158.1 139.79 146.26 146.86 138.64"/><polygon class="cls-1" points="60.41 245.95 24.23 258.76 22.36 265.14 43.99 262.69 60.41 245.95"/><polygon class="cls-1" points="178.65 136.39 151.87 224.98 127.3 251.48 136.47 178.97 178.65 136.39"/><text class="cls-4" transform="translate(7.31 221.69) rotate(7.21)">C9919</text></g></g></svg>