<svg xmlns="http://www.w3.org/2000/svg" viewBox="0 0 1445.4 32.28"><defs><style>.cls-1{fill:#21366c;}</style></defs><title>Asset 6</title><g id="Layer_2" data-name="Layer 2"><g id="Layer_1-2" data-name="Layer 1"><polygon class="cls-1" points="722.99 6.91 733.94 7.08 732.47 31.82 742.32 32.22 741.97 7.47 755.67 7.47 754.36 32.22 767.13 32.22 766.82 7.47 779.89 7.02 778.67 32.22 791.67 32.22 791.93 7.47 806.88 7.47 806.55 32.22 818.16 32.22 816.73 7.93 830.23 7.47 830.5 32.22 838.2 32.22 838.25 7.93 850.29 7.93 850.6 32.22 860.7 32.22 860.87 7.47 875.1 7.02 873 32.22 882.41 32.22 883.12 7.02 894.79 6.57 894.1 32.22 904.48 32.22 904.27 7.02 919.03 7.08 917.47 32.22 926.87 32.22 925.59 7.11 940.36 7.19 938.77 32.22 949.61 32.22 949.12 7.23 961.16 6.85 961.32 32.22 968.79 32.22 968.27 6.89 980.86 6.95 981.02 32.22 988.31 32.22 987.42 7.43 1002.74 7.07 1000.66 32.22 1012.95 32.22 1013.14 7.12 1024.08 6.74 1024.58 32.22 1032.63 32.22 1033.94 6.39 1045.98 6.89 1046.5 32.22 1055.92 32.22 1058.02 6.51 1069.51 6.57 1069.3 32.22 1076.96 32.22 1077.16 7.05 1090.3 6.68 1089.71 32.22 1096.47 32.22 1097.41 6.28 1106.71 6.33 1107.64 32.22 1114.17 32.22 1114.37 6.8 1129.14 6.88 1128.94 32.22 1138.6 32.22 1135.71 6.47 1146.11 6.09 1146.66 32.22 1156.18 32.22 1154.32 5.69 1168 5.76 1167.79 32.22 1180.09 32.22 1178.4 6.3 1191.54 5.92 1192.05 32.22 1202.47 32.22 1203.38 6.12 1216.14 5.66 1216.38 32.22 1229.17 32.22 1227.64 5.63 1240.78 5.5 1241 32.22 1248.65 32.22 1248.43 6.17 1260.47 5.36 1261.13 32.22 1271.41 32.22 1270.32 6.33 1284.55 5.96 1283.03 32.22 1292.65 32.22 1293.31 6.01 1303.71 5.62 1304.79 32.22 1315.17 32.22 1314.1 6.11 1328.88 5.99 1327.02 32.22 1337.5 32.22 1335.99 6.71 1350.76 6.78 1348.81 32.22 1360.16 32.22 1359.52 6.83 1371.56 6.45 1371.76 32.22 1379.31 32.22 1378.67 6.49 1391.25 6.55 1391.46 32.22 1398.88 32.22 1397.82 7.02 1413.14 6.66 1410.77 32.22 1423.31 32.22 1423.53 6.72 1437.65 6.39 1438.28 32.27 1445.4 32.22 1445.4 0 722.99 0 722.99 6.91"/><polygon class="cls-1" points="0 6.91 10.95 7.08 9.48 31.82 19.33 32.22 18.98 7.47 32.68 7.47 31.37 32.22 44.14 32.22 43.83 7.47 56.9 7.02 55.68 32.22 68.68 32.22 68.94 7.47 83.89 7.47 83.56 32.22 95.17 32.22 93.74 7.93 107.24 7.47 107.51 32.22 115.21 32.22 115.26 7.93 127.3 7.93 127.61 32.22 137.71 32.22 137.88 7.47 152.1 7.02 150.01 32.22 159.43 32.22 160.13 7.02 171.8 6.57 171.11 32.22 181.49 32.22 181.29 7.02 196.04 7.08 194.48 32.22 203.88 32.22 202.6 7.11 217.37 7.19 215.78 32.22 226.62 32.22 226.13 7.23 238.17 6.85 238.33 32.22 245.8 32.22 245.28 6.89 257.87 6.95 258.03 32.22 265.32 32.22 264.43 7.43 279.75 7.07 277.67 32.22 289.96 32.22 290.15 7.12 301.09 6.74 301.58 32.22 309.64 32.22 310.95 6.39 322.99 6.89 323.51 32.22 332.93 32.22 335.03 6.51 346.52 6.57 346.31 32.22 353.97 32.22 354.17 7.05 367.31 6.68 366.72 32.22 373.48 32.22 374.43 6.28 383.73 6.33 384.65 32.22 391.18 32.22 391.38 6.8 406.15 6.88 405.95 32.22 415.61 32.22 412.72 6.47 423.12 6.09 423.67 32.22 433.19 32.22 431.33 5.69 445.01 5.76 444.8 32.22 457.1 32.22 455.41 6.3 468.55 5.92 469.06 32.22 479.48 32.22 480.39 6.12 493.15 5.66 493.39 32.22 506.18 32.22 504.65 5.63 517.79 5.5 518.01 32.22 525.66 32.22 525.44 6.17 537.48 5.36 538.14 32.22 548.42 32.22 547.34 6.33 561.56 5.96 560.04 32.22 569.66 32.22 570.32 6.01 580.72 5.62 581.8 32.22 592.19 32.22 591.11 6.11 605.89 5.99 604.03 32.22 614.51 32.22 613 6.71 627.77 6.78 625.82 32.22 637.17 32.22 636.53 6.83 648.57 6.45 648.77 32.22 656.32 32.22 655.68 6.49 668.26 6.55 668.47 32.22 675.89 32.22 674.83 7.02 690.15 6.66 687.78 32.22 700.32 32.22 700.54 6.72 714.66 6.39 715.29 32.27 722.41 32.22 722.41 0 0 0 0 6.91"/></g></g></svg>