<svg xmlns="http://www.w3.org/2000/svg" viewBox="0 0 730.46 49.48"><defs><style>.cls-1{fill:#eed443;}.cls-2{fill:#001c3f;}.cls-3{fill:#08195e;}.cls-4{fill:#ed1c24;}.cls-5{fill:#21366c;}.cls-6{fill:#facb87;}.cls-7{font-size:18.84px;fill:#0a2e5e;font-family:HYQiHei-HZW-GBpc-EUC-H, HYQiHei;letter-spacing:0.3em;}</style></defs><title>train</title><g id="Layer_2" data-name="Layer 2"><g id="Layer_1-2" data-name="Layer 1"><rect class="cls-1" x="535.95" y="36.55" width="19.13" height="7.22" transform="translate(0.42 -5.3) rotate(0.56)"/><circle class="cls-2" cx="532.19" cy="40.23" r="6.76" transform="translate(486.8 572) rotate(-89.44)"/><path class="cls-1" d="M536,40.22A3.91,3.91,0,0,1,532,44a3.83,3.83,0,0,1-3.84-3.86,3.91,3.91,0,0,1,4-3.79A3.83,3.83,0,0,1,536,40.22Z"/><circle class="cls-2" cx="559.72" cy="40.49" r="6.76" transform="translate(513.79 599.8) rotate(-89.44)"/><path class="cls-1" d="M563.55,40.48a3.91,3.91,0,0,1-4,3.79,3.83,3.83,0,0,1-3.84-3.86,3.91,3.91,0,0,1,4-3.79A3.83,3.83,0,0,1,563.55,40.48Z"/><polygon class="cls-2" points="541.41 38.41 541.26 41.2 549.99 42.05 550.16 37.99 541.41 38.41"/><rect class="cls-1" x="667.15" y="36.52" width="19.13" height="7.22" transform="matrix(1, 0.01, -0.01, 1, 0.42, -6.57)"/><circle class="cls-3" cx="663.39" cy="40.19" r="6.76" transform="translate(616.76 703.15) rotate(-89.44)"/><path class="cls-1" d="M667.21,40.18a3.91,3.91,0,0,1-4,3.79,3.83,3.83,0,0,1-3.84-3.86,3.91,3.91,0,0,1,4-3.79A3.83,3.83,0,0,1,667.21,40.18Z"/><circle class="cls-3" cx="690.92" cy="40.45" r="6.76" transform="translate(643.76 730.95) rotate(-89.44)"/><path class="cls-1" d="M694.74,40.44a3.91,3.91,0,0,1-4,3.79,3.83,3.83,0,0,1-3.84-3.86,3.91,3.91,0,0,1,4-3.79A3.83,3.83,0,0,1,694.74,40.44Z"/><polygon class="cls-3" points="681.2 41.5 681.35 38.71 672.62 37.87 672.45 41.92 681.2 41.5"/><rect class="cls-1" x="370.23" y="37.67" width="19.13" height="7.22" transform="translate(0.35 -3.12) rotate(0.47)"/><circle class="cls-2" cx="366.47" cy="41.36" r="6.76" transform="translate(322.09 407.49) rotate(-89.53)"/><path class="cls-1" d="M370.3,41.35a3.91,3.91,0,0,1-4,3.8,3.83,3.83,0,0,1-3.85-3.85,3.91,3.91,0,0,1,4-3.8A3.83,3.83,0,0,1,370.3,41.35Z"/><circle class="cls-2" cx="394.01" cy="41.59" r="6.76" transform="translate(349.17 435.24) rotate(-89.53)"/><path class="cls-1" d="M397.83,41.58a3.91,3.91,0,0,1-4,3.8A3.83,3.83,0,0,1,390,41.52a3.91,3.91,0,0,1,4-3.8A3.83,3.83,0,0,1,397.83,41.58Z"/><polygon class="cls-2" points="375.69 39.54 375.55 42.33 384.28 43.16 384.44 39.1 375.69 39.54"/><rect class="cls-1" x="29.42" y="39.59" width="17.88" height="6.75" transform="translate(-0.08 0.07) rotate(-0.11)"/><circle class="cls-2" cx="25.91" cy="43.17" r="6.32" transform="translate(-0.08 0.05) rotate(-0.11)"/><path class="cls-1" d="M29.48,43.12a3.65,3.65,0,0,1-3.67,3.59,3.58,3.58,0,0,1-3.63-3.56,3.65,3.65,0,0,1,3.67-3.59A3.58,3.58,0,0,1,29.48,43.12Z"/><circle class="cls-2" cx="51.64" cy="43.12" r="6.32" transform="translate(-0.08 0.1) rotate(-0.11)"/><path class="cls-1" d="M55.22,43.07a3.65,3.65,0,0,1-3.67,3.59,3.58,3.58,0,0,1-3.63-3.56,3.65,3.65,0,0,1,3.67-3.59A3.58,3.58,0,0,1,55.22,43.07Z"/><polygon class="cls-2" points="34.51 41.37 34.4 43.98 42.57 44.67 42.68 40.88 34.51 41.37"/><rect class="cls-1" x="448.25" y="38.07" width="19.13" height="7.22" transform="translate(0.36 -3.77) rotate(0.47)"/><circle class="cls-2" cx="444.49" cy="41.76" r="6.76" transform="translate(399.07 485.88) rotate(-89.53)"/><path class="cls-1" d="M448.31,41.74a3.91,3.91,0,0,1-4,3.8,3.83,3.83,0,0,1-3.85-3.85,3.91,3.91,0,0,1,4-3.8A3.83,3.83,0,0,1,448.31,41.74Z"/><circle class="cls-2" cx="472.02" cy="41.98" r="6.76" transform="translate(426.15 513.64) rotate(-89.53)"/><path class="cls-1" d="M475.84,42a3.91,3.91,0,0,1-4,3.8A3.83,3.83,0,0,1,468,41.91a3.91,3.91,0,0,1,4-3.8A3.83,3.83,0,0,1,475.84,42Z"/><polygon class="cls-2" points="462.3 43.04 462.45 40.26 453.71 39.42 453.55 43.48 462.3 43.04"/><rect class="cls-1" x="122.87" y="38.06" width="19.13" height="7.22" transform="matrix(1, 0, 0, 1, 0.05, -0.14)"/><circle class="cls-2" cx="119.11" cy="41.84" r="6.76" transform="translate(77.14 160.91) rotate(-89.94)"/><path class="cls-1" d="M122.94,41.8A3.91,3.91,0,0,1,119,45.62a3.83,3.83,0,0,1-3.87-3.82A3.91,3.91,0,0,1,119.06,38,3.83,3.83,0,0,1,122.94,41.8Z"/><circle class="cls-2" cx="146.65" cy="41.87" r="6.76" transform="translate(104.62 188.47) rotate(-89.94)"/><path class="cls-1" d="M150.47,41.83a3.91,3.91,0,0,1-3.94,3.82,3.83,3.83,0,0,1-3.87-3.82A3.91,3.91,0,0,1,146.6,38,3.83,3.83,0,0,1,150.47,41.83Z"/><polygon class="cls-2" points="136.93 43 137.06 40.21 128.32 39.45 128.19 43.5 136.93 43"/><polygon class="cls-4" points="504.4 35.02 505.36 0.28 648.96 0 712.3 19.26 728.63 35.71 504.4 35.02"/><path class="cls-5" d="M649.82,4.84l-10.74,0a1.22,1.22,0,0,0-.4,2.36l12.47,4.3H662a1.22,1.22,0,0,0,.39-2.37Z"/><polygon class="cls-5" points="633.22 23.46 610.95 7.43 514.37 8.14 513.44 22.83 633.22 23.46"/><path class="cls-5" d="M504.4,35l0,7,19.68.13,5.2-2.42,37.55.56,3.46,2.23,79.9.73,7.15-1.51,39.14-1.18,3.67,3.1,11.44.25,18.83-.31a13,13,0,0,0-1.75-7.86Z"/><polygon class="cls-6" points="614.01 5.7 624.8 5.74 678.86 35.47 504.4 35.02 504.37 29.23 649.13 28.72 614.01 5.7"/><path class="cls-5" d="M677.5,14.53h-16.6a1.11,1.11,0,0,0-.47,2.11l18.75,8.7,15.33.16a2,2,0,0,0,.77-3.95Z"/><polygon class="cls-4" points="496.3 31.82 496.91 0.68 342.49 0.93 341.27 31.71 496.3 31.82"/><polygon class="cls-5" points="341.27 31.71 341.19 41.92 359.72 41.95 367.31 39.53 397.03 39.88 400.57 42.05 437.93 42.35 442.48 40.33 476.8 40.8 478.78 42.44 496.77 42.52 496.3 31.82 341.27 31.71"/><polygon class="cls-5" points="381.73 8.13 350.6 7.88 351.54 19.84 381.73 20.28 381.73 8.13"/><polygon class="cls-5" points="465.85 8.8 465.85 21.52 484.61 21.79 484.7 8.95 465.85 8.8"/><polygon class="cls-6" points="496.43 28.37 341.51 28.34 341.26 32.9 496.44 33.25 496.43 28.37"/><rect class="cls-1" x="284.84" y="37.67" width="19.13" height="7.22" transform="matrix(-1, 0.01, -0.01, -1, 589.14, 80.14)"/><circle class="cls-2" cx="307.73" cy="41.36" r="6.76" transform="translate(-0.33 2.53) rotate(-0.47)"/><path class="cls-1" d="M303.91,41.35a3.91,3.91,0,0,0,4,3.8,3.83,3.83,0,0,0,3.85-3.85,3.91,3.91,0,0,0-4-3.8A3.83,3.83,0,0,0,303.91,41.35Z"/><circle class="cls-2" cx="280.2" cy="41.59" r="6.76" transform="matrix(1, -0.01, 0.01, 1, -0.33, 2.31)"/><path class="cls-1" d="M276.37,41.58a3.91,3.91,0,0,0,4,3.8,3.83,3.83,0,0,0,3.85-3.85,3.91,3.91,0,0,0-4-3.8A3.83,3.83,0,0,0,276.37,41.58Z"/><polygon class="cls-2" points="298.51 39.54 298.66 42.33 289.92 43.16 289.76 39.1 298.51 39.54"/><rect class="cls-1" x="206.83" y="38.07" width="19.13" height="7.22" transform="translate(433.12 81.57) rotate(179.53)"/><circle class="cls-2" cx="229.72" cy="41.76" r="6.76" transform="translate(-0.34 1.89) rotate(-0.47)"/><path class="cls-1" d="M225.89,41.74a3.91,3.91,0,0,0,4,3.8,3.83,3.83,0,0,0,3.85-3.85,3.91,3.91,0,0,0-4-3.8A3.83,3.83,0,0,0,225.89,41.74Z"/><circle class="cls-2" cx="202.18" cy="41.98" r="6.76" transform="translate(-0.34 1.67) rotate(-0.47)"/><path class="cls-1" d="M198.36,42a3.91,3.91,0,0,0,4,3.8,3.83,3.83,0,0,0,3.85-3.85,3.91,3.91,0,0,0-4-3.8A3.83,3.83,0,0,0,198.36,42Z"/><polygon class="cls-2" points="211.91 43.04 211.76 40.26 220.49 39.42 220.65 43.48 211.91 43.04"/><polygon class="cls-4" points="177.9 31.82 179.32 0.68 332.73 0.93 332.94 31.71 177.9 31.82"/><polygon class="cls-5" points="332.94 31.71 333.01 41.92 314.49 41.95 306.89 39.53 277.17 39.88 273.63 42.05 236.28 42.35 231.72 40.33 197.41 40.8 195.43 42.44 177.44 42.52 177.9 31.82 332.94 31.71"/><polygon class="cls-5" points="189.5 8.95 323.61 7.88 322.66 19.84 189.6 21.79 189.5 8.95"/><polygon class="cls-6" points="177.78 28.37 332.69 28.34 332.94 32.9 177.77 33.25 177.78 28.37"/><polygon class="cls-4" points="1.62 31.74 3.59 9.77 14.64 0.12 168.81 1.27 168.28 29.57 1.62 31.74"/><polygon class="cls-5" points="1.62 31.74 0 42.95 24.97 42.79 27.19 41.1 53.27 41.34 55.22 42.1 113.66 41.3 116.21 39.4 150.52 39.5 151.31 42.01 168.3 42.28 168.28 29.57 1.62 31.74"/><polygon class="cls-5" points="162.12 7.93 13 8.4 11.89 20.19 161.59 20.11 162.12 7.93"/><polygon class="cls-6" points="168.28 28.36 1.78 28.64 1.33 33.73 168.24 32.87 168.28 28.36"/><text class="cls-7" transform="matrix(0.87, 0, -0.01, 1, 396.69, 21.16)">复兴号</text></g></g></svg>