<svg xmlns="http://www.w3.org/2000/svg" viewBox="0 0 1444.41 25.91"><defs><style>.cls-1{fill:#21366c;}</style></defs><title>Asset 15</title><g id="Layer_2" data-name="Layer 2"><g id="Layer_1-2" data-name="Layer 1"><path class="cls-1" d="M0,25.91H722.41v-16c-16.71,10.52-21.34-3.55-41-4.43C662,5,653.53,17.19,643.07,17.74c-13.5.71-17.87-15.6-43-15.8-17.34-.14-29.24,12.25-39.46,12.25C543.13,14.2,534.06,2,522.58,3.05c-13.76,1.23-25.73,16.72-39.27,9-15-8.51-25.82-6.44-40.68-.57-13.3,5.26-20-1.27-32.64-6.52s-24.86,5.84-37.57,7.09c-11,1.08-23.72-9.93-34.29-11.34-23.07-3.09-29.28,4.37-47.39,9-11.11,2.84-20.06-1.27-31-3.14-9.42-1.6-18.16-.73-27.51.92-16.72,3-34.58,8-51.45,5.82-14.09-1.81-26.24-6.77-40.62-6.73-14.95,0-29.34,5.06-44.33,5.15-10.91.07-17-8.17-45.82-8.88S0,8.65,0,8.65Z"/><path class="cls-1" d="M721.7,25.91h722.7V11.21c-16.72,9.68-21.35-3.26-41-4.07C1384,6.64,1375.5,17.89,1365,18.39c-13.5.65-17.88-14.36-43-14.54-17.35-.13-29.26,11.28-39.48,11.28-17.52,0-26.59-11.21-38.07-10.26-13.77,1.13-25.74,15.4-39.29,8.31-15-7.83-25.84-5.93-40.7-.52-13.31,4.84-20-1.17-32.65-6S1107,12,1094.28,13.17c-11,1-23.73-9.14-34.3-10.44-23.08-2.84-29.29,4-47.41,8.28-11.11,2.61-20.07-1.17-31.06-2.89C972.09,6.63,963.34,7.44,954,9c-16.73,2.72-34.59,7.35-51.47,5.35-14.1-1.67-26.25-6.23-40.64-6.19-15,0-29.35,4.65-44.35,4.74-10.92.06-17-7.52-45.84-8.18s-50,5.33-50,5.33Z"/></g></g></svg>