<svg xmlns="http://www.w3.org/2000/svg" viewBox="0 0 271.14 339.78"><defs><style>.cls-1{isolation:isolate;}.cls-2{fill:#2ea7e0;}.cls-2,.cls-3{mix-blend-mode:multiply;}.cls-3{fill:#056fb8;}</style></defs><title>fireworks_04</title><g class="cls-1"><g id="Layer_2" data-name="Layer 2"><g id="图层_1" data-name="图层 1"><g id="_Group_" data-name="&lt;Group&gt;"><g id="_Group_2" data-name="&lt;Group&gt;"><path id="_Path_" data-name="&lt;Path&gt;" class="cls-2" d="M162.16,99.47l89.63-79L269.67,138.6a129.8,129.8,0,0,1-40.42,114.93l-93.68,86.25L119.24,213.49A129.8,129.8,0,0,1,162.16,99.47Z"/><path id="_Path_2" data-name="&lt;Path&gt;" class="cls-2" d="M1.47,138.6,19.36,20.49l89.63,79a129.8,129.8,0,0,1,42.91,114L135.57,339.78,41.88,253.53A129.8,129.8,0,0,1,1.47,138.6Z"/><path id="_Path_3" data-name="&lt;Path&gt;" class="cls-3" d="M78.36,104.87,135.57,0l57.21,104.87a129.8,129.8,0,0,1,1.33,121.82L135.57,339.78,77,226.69A129.8,129.8,0,0,1,78.36,104.87Z"/></g></g></g></g></g></svg>