<svg xmlns="http://www.w3.org/2000/svg" viewBox="0 0 365.61 458.18"><defs><style>.cls-1{isolation:isolate;}.cls-2{fill:#15ae67;}.cls-2,.cls-3{mix-blend-mode:multiply;}.cls-3{fill:#00a29a;}</style></defs><title>firework_06</title><g class="cls-1"><g id="Layer_2" data-name="Layer 2"><g id="图层_1" data-name="图层 1"><g id="_Group_" data-name="&lt;Group&gt;"><g id="_Group_2" data-name="&lt;Group&gt;"><path id="_Path_" data-name="&lt;Path&gt;" class="cls-2" d="M218.66,134.13,339.51,27.63,363.64,186.9a175,175,0,0,1-54.5,155L182.81,458.18l-22-170.3A175,175,0,0,1,218.66,134.13Z"/><path id="_Path_2" data-name="&lt;Path&gt;" class="cls-2" d="M2,186.9,26.1,27.63,147,134.13a175,175,0,0,1,57.86,153.75l-22,170.3L56.48,341.87A175,175,0,0,1,2,186.9Z"/><path id="_Path_3" data-name="&lt;Path&gt;" class="cls-3" d="M105.67,141.41,182.81,0l77.14,141.41a175,175,0,0,1,1.79,164.27l-78.93,152.5-78.93-152.5A175,175,0,0,1,105.67,141.41Z"/></g></g></g></g></g></svg>