<svg xmlns="http://www.w3.org/2000/svg" viewBox="0 0 291.17 364.88"><defs><style>.cls-1{isolation:isolate;}.cls-2{fill:#00a29a;}.cls-2,.cls-3{mix-blend-mode:multiply;}.cls-3{fill:#2ea7e0;}</style></defs><title>firework_05</title><g class="cls-1"><g id="Layer_2" data-name="Layer 2"><g id="图层_1" data-name="图层 1"><g id="_Group_" data-name="&lt;Group&gt;"><g id="_Group_2" data-name="&lt;Group&gt;"><path id="_Path_" data-name="&lt;Path&gt;" class="cls-2" d="M174.14,106.82,270.38,22l19.21,126.84a139.39,139.39,0,0,1-43.4,123.42L145.58,364.88,128.05,229.26A139.39,139.39,0,0,1,174.14,106.82Z"/><path id="_Path_2" data-name="&lt;Path&gt;" class="cls-2" d="M1.57,148.84,20.79,22,117,106.82a139.39,139.39,0,0,1,46.08,122.44L145.58,364.88,45,272.26A139.39,139.39,0,0,1,1.57,148.84Z"/><path id="_Path_3" data-name="&lt;Path&gt;" class="cls-3" d="M84.15,112.62,145.58,0,207,112.62a139.39,139.39,0,0,1,1.42,130.82L145.58,364.88,82.72,243.44A139.39,139.39,0,0,1,84.15,112.62Z"/></g></g></g></g></g></svg>